<svg xmlns="http://www.w3.org/2000/svg" viewBox="0 0 24 24" fill="none">
  <path fill-rule="evenodd" clip-rule="evenodd" d="M12 8.25A3.75 3.75 0 1 0 12 15.75 3.75 3.75 0 0 0 12 8.25ZM9.75 12A2.25 2.25 0 1 1 14.25 12 2.25 2.25 0 0 1 9.75 12Z" fill="#fff"/>
  <path fill-rule="evenodd" clip-rule="evenodd" d="M11.975 1.25h.05c.445 0 .816 0 1.12.021.317.022.617.068.907.189a2.75 2.75 0 0 1 1.488 1.488c.145.351.184.721.199 1.123.012.323.175.592.416.731.241.139.556.145.842-.006.356-.188.696-.339 1.072-.388a2.75 2.75 0 0 1 2.033.545c.249.192.44.428.617.692.17.253.355.574.577.959l.025.044c.222.385.408.706.542.98.14.286.249.569.29.88a2.75 2.75 0 0 1-.545 2.033c-.231.301-.531.52-.871.734-.274.172-.426.448-.426.726 0 .278.152.554.426.726.34.214.64.433.871.734.444.579.64 1.31.545 2.033-.041.312-.15.594-.29.88-.134.274-.32.595-.542.98l-.025.044c-.222.385-.407.706-.577.959-.177.264-.368.5-.617.692a2.75 2.75 0 0 1-2.033.545c-.376-.05-.716-.2-1.072-.388-.286-.151-.601-.145-.842-.006-.241.139-.404.408-.416.731-.015.402-.054.772-.2 1.123a2.75 2.75 0 0 1-1.487 1.488c-.29.12-.59.167-.907.189-.304.021-.675.021-1.12.021h-.05c-.445 0-.816 0-1.12-.021-.317-.022-.617-.068-.907-.189a2.75 2.75 0 0 1-1.488-1.488c-.145-.351-.184-.721-.199-1.123-.012-.323-.175-.592-.416-.731-.241-.139-.556-.145-.842.006-.356.188-.696.339-1.072.388a2.75 2.75 0 0 1-2.033-.545c-.249-.192-.44-.428-.617-.692-.17-.253-.355-.574-.577-.959l-.025-.044c-.222-.385-.408-.706-.542-.98-.14-.286-.249-.569-.29-.88a2.75 2.75 0 0 1 .545-2.033c.231-.301.531-.52.871-.734.274-.172.426-.448.426-.726 0-.278-.152-.554-.426-.726-.34-.214-.64-.433-.871-.734A2.75 2.75 0 0 1 1.845 8.507c.041-.312.15-.594.29-.88.134-.274.32-.595.542-.98l.025-.044c.222-.385.407-.706.577-.959.177-.264.368-.5.617-.692A2.75 2.75 0 0 1 5.93 4.407c.376.05.716.2 1.072.388.286.151.601.145.842.006.241-.139.404-.408.416-.731.015-.402.054-.772.2-1.123A2.75 2.75 0 0 1 9.948 1.46c.29-.12.59-.167.907-.189.304-.021.675-.021 1.12-.021Zm-.018 1.5c-.476 0-.796 0-1.043.017-.241.016-.358.046-.435.078a1.25 1.25 0 0 0-.676.676c-.04.097-.073.247-.086.604-.03.792-.439 1.555-1.165 1.974-.726.419-1.591.392-2.292.021-.316-.167-.463-.213-.567-.227a1.25 1.25 0 0 0-.923.248c-.066.051-.15.138-.285.338-.138.206-.298.482-.536.895-.238.412-.398.689-.507.911-.106.217-.139.333-.15.416a1.25 1.25 0 0 0 .248.923c.064.083.178.187.48.378.671.421 1.127 1.156 1.127 1.994 0 .838-.456 1.573-1.127 1.994-.302.19-.416.294-.48.377a1.25 1.25 0 0 0-.248.923c.011.083.044.2.15.416.109.223.269.5.507.912.238.412.398.689.536.895.135.2.219.287.285.338.263.201.594.29.923.247.104-.013.251-.06.567-.226.701-.371 1.566-.398 2.292.021.726.419 1.135 1.182 1.165 1.974.013.357.046.507.086.604.127.306.37.549.676.676.077.032.194.062.435.078.247.017.567.017 1.043.017s.796 0 1.043-.017c.241-.016.358-.046.435-.078a1.25 1.25 0 0 0 .676-.676c.04-.097.073-.247.086-.604.03-.792.439-1.555 1.165-1.974.726-.419 1.591-.392 2.292-.021.316.167.463.213.567.226.329.043.66-.046.923-.247.066-.051.15-.138.285-.338.138-.206.298-.483.536-.895.238-.412.398-.689.507-.912.106-.216.139-.333.15-.416a1.25 1.25 0 0 0-.248-.923c-.064-.083-.178-.187-.48-.377-.671-.421-1.127-1.156-1.127-1.994 0-.838.456-1.573 1.127-1.994.302-.191.416-.295.48-.378a1.25 1.25 0 0 0 .248-.923c-.011-.083-.044-.2-.15-.416-.109-.222-.269-.499-.507-.911-.238-.413-.398-.689-.536-.895-.135-.2-.219-.287-.285-.338a1.25 1.25 0 0 0-.923-.248c-.104.014-.251.06-.567.227-.701.371-1.566.398-2.292-.021-.726-.419-1.135-1.182-1.165-1.974-.013-.357-.046-.507-.086-.604a1.25 1.25 0 0 0-.676-.676c-.077-.032-.194-.062-.435-.078-.247-.017-.567-.017-1.043-.017Z" fill="#fff"/>
</svg>
